HIERARCHY
ROOT root
{
	OFFSET	0	13.1	24.9
	CHANNELS 6  Xposition Yposition Zposition Xrotation Yrotation Zrotation
	JOINT spine_1
	{
		OFFSET	0	9.99999	0
		CHANNELS 3  Xrotation Yrotation Zrotation
		JOINT spine_2
		{
			OFFSET	0	112	-10
			CHANNELS 3  Xrotation Yrotation Zrotation
			JOINT spine_3
			{
				OFFSET	0	206.5	19.3
				CHANNELS 3  Xrotation Yrotation Zrotation
				JOINT spine_4
				{
					OFFSET	0	110.4	14.6
					CHANNELS 3  Xrotation Yrotation Zrotation
					JOINT neck_1
					{
						OFFSET	0	71.8	-50.3
						CHANNELS 3  Xrotation Yrotation Zrotation
						JOINT neck_2
						{
							OFFSET	0	86.2	-25.8
							CHANNELS 3  Xrotation Yrotation Zrotation
							JOINT head_ee
							{
								OFFSET	0	179.8	-8.7
								CHANNELS 3  Xrotation Yrotation Zrotation
								End Site
								{
									OFFSET	1	0	0
								}
							}
						}
					}
					JOINT left_clavicle
					{
						OFFSET	-43.2	22.4	-70.8
						CHANNELS 3  Xrotation Yrotation Zrotation
						JOINT left_shoulder
						{
							OFFSET	-93.9	-5.79999	48.7
							CHANNELS 3  Xrotation Yrotation Zrotation
							JOINT left_elbow
							{
								OFFSET	-291.4	-30.8	15.2
								CHANNELS 3  Xrotation Yrotation Zrotation
								JOINT left_lowarm_twist
								{
									OFFSET	-110.7	-3.89999	13.6
									CHANNELS 3  Xrotation Yrotation Zrotation
									JOINT left_hand
									{
										OFFSET	-110.7	-3.89999	13.6
										CHANNELS 3  Xrotation Yrotation Zrotation
										JOINT left_ee
										{
											OFFSET	-80.8	-5.10001	12.1
											CHANNELS 3  Xrotation Yrotation Zrotation
											End Site
											{
												OFFSET	1	0	0
											}
										}
									}
								}
							}
						}
					}
					JOINT right_clavicle
					{
						OFFSET	43.2	22.4	-70.8
						CHANNELS 3  Xrotation Yrotation Zrotation
						JOINT right_shoulder
						{
							OFFSET	93.9	-5.79999	48.7
							CHANNELS 3  Xrotation Yrotation Zrotation
							JOINT right_elbow
							{
								OFFSET	291.4	-30.8	15.2
								CHANNELS 3  Xrotation Yrotation Zrotation
								JOINT right_lowarm_twist
								{
									OFFSET	110.7	-3.89999	13.6
									CHANNELS 3  Xrotation Yrotation Zrotation
									JOINT right_hand
									{
										OFFSET	110.7	-3.89999	13.6
										CHANNELS 3  Xrotation Yrotation Zrotation
										JOINT right_ee
										{
											OFFSET	80.8	-5.10001	12.1
											CHANNELS 3  Xrotation Yrotation Zrotation
											End Site
											{
												OFFSET	1	0	0
											}
										}
									}
								}
							}
						}
					}
				}
			}
		}
	}
	JOINT left_hip
	{
		OFFSET	-82.8	-127.5	0.300001
		CHANNELS 3  Xrotation Yrotation Zrotation
		JOINT left_knee
		{
			OFFSET	-28.2	-396.7	2.2
			CHANNELS 3  Xrotation Yrotation Zrotation
			JOINT left_ankle
			{
				OFFSET	-11.7	-411.3	35.4
				CHANNELS 3  Xrotation Yrotation Zrotation
				JOINT left_toes
				{
					OFFSET	0	-60	-88.6
					CHANNELS 3  Xrotation Yrotation Zrotation
					JOINT left_foot_ee
					{
						OFFSET	-22.5	-16.5	-42.2
						CHANNELS 3  Xrotation Yrotation Zrotation
						End Site
						{
							OFFSET	1	0	0
						}
					}
				}
			}
		}
	}
	JOINT right_hip
	{
		OFFSET	82.8	-127.5	0.300001
		CHANNELS 3  Xrotation Yrotation Zrotation
		JOINT right_knee
		{
			OFFSET	28.2	-396.7	2.2
			CHANNELS 3  Xrotation Yrotation Zrotation
			JOINT right_ankle
			{
				OFFSET	11.7	-411.3	35.4
				CHANNELS 3  Xrotation Yrotation Zrotation
				JOINT right_toes
				{
					OFFSET	0	-60	-88.6
					CHANNELS 3  Xrotation Yrotation Zrotation
					JOINT right_foot_ee
					{
						OFFSET	22.5	-16.5	-42.2
						CHANNELS 3  Xrotation Yrotation Zrotation
						End Site
						{
							OFFSET	1	0	0
						}
					}
				}
			}
		}
	}
}
MOTION
Frames: 8
Frame Time: 0.02
2533.69653402 751.002 -1502.19319288 20.9888774698 65.5807012998 -27.589932021 -3.34964 0.592949 3.82187 -3.34159 0.348736 3.8518 -3.30659 -0.69001 3.80557 -3.32679 -0.0808013 3.86668 -18.0868 20.2432 4.30662 -19.9716 36.641 12.6486 -0.0 0.0 -0.0 0.853908 18.2347 3.42805 -11.0404 -9.94626 68.303 0.2465 -6.96202 0.0149946 -10.476 -0.484634 1.24676 -0.864575 24.8708 4.95334 -0.0 0.0 -0.0 13.199 24.0357 -26.3557 -1.96018 27.1173 -64.0178 1.26052 31.9802 -0.361224 78.3174 3.64595 8.51209 1.86181 -23.0724 -20.4121 0.0 0.0 0.0 -3.0535 29.4291 -5.96201 -38.7164 -0.387132 5.81776 20.3138 -3.73978 -2.81959 -5.58352 0.0 0.0 -0.0 0.0 -0.0 -5.30881 23.9532 6.50868 -0.180048 -0.00737186 -0.0266468 29.6569 3.39857 3.90533 -38.7982 0.0 0.0 0.0 0.0 0.0 
2522.12959182 750.376 -1492.39505012 21.8517959944 66.7897563615 -28.3417495267 -3.32836 0.77236 3.91732 -3.31998 0.521726 3.95844 -3.27127 -0.54891 3.95477 -3.29308 0.0820443 3.99178 -17.3739 20.1123 2.86285 -19.2252 37.0816 11.0169 -0.0 0.0 -0.0 0.396576 19.0924 2.82203 -13.1261 -10.652 68.3064 0.377747 -10.5991 0.0350395 -10.3144 -0.47544 1.22824 -0.557088 26.2374 7.23485 -0.0 0.0 -0.0 13.1745 24.3706 -26.2638 -2.21671 28.1773 -64.0103 1.28695 32.5168 -0.375332 79.3172 3.76005 8.57081 2.56963 -18.5928 -23.7665 0.0 0.0 0.0 -1.28243 30.6586 -7.16068 -33.3326 -0.0979426 5.04306 20.1082 -1.29884 -2.77383 -5.44819 0.0 0.0 -0.0 0.0 -0.0 -6.14904 23.8003 6.6482 -0.0766959 -0.00315071 -0.011348 30.656 4.62267 4.02723 -39.7063 0.0 0.0 0.0 0.0 0.0 
2519.82739266 750.626 -1485.52825228 20.5260152641 66.7380515512 -27.1398689187 -3.18746 0.84535 4.01529 -3.17868 0.58835 4.06084 -3.12385 -0.501291 4.07248 -3.14696 0.147613 4.10052 -18.9498 19.4497 2.32301 -20.9903 36.2185 10.835 -0.0 0.0 -0.0 0.321539 19.6939 2.77217 -14.609 -11.1932 68.2988 0.400451 -11.2204 0.0393367 -10.8676 -0.507121 1.29152 -0.195892 28.2873 10.0139 -0.0 0.0 -0.0 13.3354 25.3509 -26.5296 -1.55224 27.3911 -63.9113 1.3432 33.6373 -0.40603 81.355 3.99566 8.6843 2.95499 -19.5062 -26.6099 0.0 0.0 0.0 -1.46437 32.1286 -6.4019 -21.2583 0.278563 3.23167 19.4744 -4.20941 -2.71856 -5.45094 0.0 0.0 -0.0 0.0 -0.0 -6.0767 23.8476 6.88929 1.74811 0.0759236 0.257493 30.8951 3.93104 4.0437 -40.1682 0.0 0.0 0.0 0.0 0.0 
2510.61575125 751.154 -1475.72826109 20.7052608564 68.5831112482 -27.0269904259 -3.10848 0.777499 4.0881 -3.09934 0.516014 4.12919 -3.04902 -0.583897 4.12015 -3.0727 0.0735478 4.1606 -17.4641 19.0621 1.02559 -19.24 36.0589 8.8806 -0.0 0.0 -0.0 0.0183367 20.2519 2.38683 -15.8217 -11.4652 68.7943 0.475469 -13.2537 0.0552398 -11.3227 -0.533647 1.34336 -0.0884846 28.932 10.8347 -0.0 0.0 -0.0 13.3451 25.6934 -26.5126 -1.80555 26.7433 -63.829 1.37283 34.2161 -0.422566 83.9422 4.30032 8.81619 3.34587 -18.075 -28.9685 0.0 0.0 0.0 -0.31773 32.6368 -6.85733 -18.3057 0.311955 2.77992 19.3659 -3.86504 -2.70163 -6.32007 0.0 0.0 -0.0 0.0 -0.0 -5.07627 24.0132 6.43828 2.48623 0.110339 0.365514 30.4219 6.04569 4.02237 -40.1892 0.0 0.0 0.0 0.0 0.0 
2503.84907155 754.137 -1467.9038571 17.5464847586 69.1180224699 -23.4488010736 -2.93386 0.831481 4.03771 -2.92497 0.573086 4.08233 -2.87156 -0.503682 4.09146 -2.89488 0.148242 4.11963 -17.0986 18.9057 0.940998 -18.7794 35.7814 8.58037 -0.0 0.0 -0.0 -0.11887 21.8867 2.37344 -16.1972 -11.906 68.8913 0.52359 -14.5406 0.0667983 -11.3943 -0.537853 1.35149 0.278822 28.6189 12.7552 -0.0 0.0 -0.0 13.3017 25.7811 -26.4015 -2.95076 25.9127 -63.7027 1.3912 34.5711 -0.432946 85.1603 4.44573 8.8735 3.63403 -17.135 -30.8031 0.0 0.0 0.0 0.476139 33.3467 -6.55814 -15.1519 0.321871 2.29619 19.6473 -5.15142 -2.74981 -5.84199 0.0 0.0 -0.0 0.0 -0.0 -4.65539 24.1925 6.96734 4.52045 0.21237 0.660869 30.248 6.34232 4.00825 -40.1553 0.0 0.0 0.0 0.0 0.0 
2503.88301471 754.137 -1466.38224714 17.7816220024 69.3976544986 -23.7002345661 -2.93386 0.831481 4.03771 -2.92497 0.573086 4.08233 -2.87156 -0.503682 4.09146 -2.89488 0.148242 4.11963 -17.0986 18.9057 0.940998 -18.7794 35.7814 8.58037 -0.0 0.0 -0.0 -0.11887 21.8867 2.37344 -16.1972 -11.906 68.8913 0.52359 -14.5406 0.0667983 -11.3943 -0.537853 1.35149 0.278822 28.6189 12.7552 -0.0 0.0 -0.0 13.3017 25.7811 -26.4015 -2.95076 25.9127 -63.7027 1.3912 34.5711 -0.432946 85.1603 4.44573 8.8735 3.63403 -17.135 -30.8031 0.0 0.0 0.0 0.476139 33.3467 -6.55814 -15.1519 0.321871 2.29619 19.6473 -5.15142 -2.74981 -5.84199 0.0 0.0 -0.0 0.0 -0.0 -4.65539 24.1925 6.96734 4.52045 0.21237 0.660869 30.248 6.34232 4.00825 -40.1553 0.0 0.0 0.0 0.0 0.0 
2503.92706839 754.137 -1464.78390761 18.0357889537 69.6910238825 -23.9715062246 -2.93386 0.831481 4.03771 -2.92497 0.573086 4.08233 -2.87156 -0.503682 4.09146 -2.89488 0.148242 4.11963 -17.0986 18.9057 0.940998 -18.7794 35.7814 8.58037 -0.0 0.0 -0.0 -0.11887 21.8867 2.37344 -16.1972 -11.906 68.8913 0.52359 -14.5406 0.0667983 -11.3943 -0.537853 1.35149 0.278822 28.6189 12.7552 -0.0 0.0 -0.0 13.3017 25.7811 -26.4015 -2.95076 25.9127 -63.7027 1.3912 34.5711 -0.432946 85.1603 4.44573 8.8735 3.63403 -17.135 -30.8031 0.0 0.0 0.0 0.476139 33.3467 -6.55814 -15.1519 0.321871 2.29619 19.6473 -5.15142 -2.74981 -5.84199 0.0 0.0 -0.0 0.0 -0.0 -4.65539 24.1925 6.96734 4.52045 0.21237 0.660869 30.248 6.34232 4.00825 -40.1553 0.0 0.0 0.0 0.0 0.0 
2504.03731813 754.137 -1461.67748596 18.5519996491 70.2600933837 -24.5209242597 -2.93386 0.831481 4.03771 -2.92497 0.573086 4.08233 -2.87156 -0.503682 4.09146 -2.89488 0.148242 4.11963 -17.0986 18.9057 0.940998 -18.7794 35.7814 8.58037 -0.0 0.0 -0.0 -0.11887 21.8867 2.37344 -16.1972 -11.906 68.8913 0.52359 -14.5406 0.0667983 -11.3943 -0.537853 1.35149 0.278822 28.6189 12.7552 -0.0 0.0 -0.0 13.3017 25.7811 -26.4015 -2.95076 25.9127 -63.7027 1.3912 34.5711 -0.432946 85.1603 4.44573 8.8735 3.63403 -17.135 -30.8031 0.0 0.0 0.0 0.476139 33.3467 -6.55814 -15.1519 0.321871 2.29619 19.6473 -5.15142 -2.74981 -5.84199 0.0 0.0 -0.0 0.0 -0.0 -4.65539 24.1925 6.96734 4.52045 0.21237 0.660869 30.248 6.34232 4.00825 -40.1553 0.0 0.0 0.0 0.0 0.0 
